<svg width="357" height="414" viewBox="0 0 357 414" fill="none" xmlns="http://www.w3.org/2000/svg">
<g filter="url(#filter0_d_0_441)">
<ellipse cx="177.962" cy="198.646" rx="79.7063" ry="11.3261" fill="url(#paint0_linear_0_441)"/>
<path fill-rule="evenodd" clip-rule="evenodd" d="M105.872 187.682C96.7273 180.029 101.768 159.421 101.768 159.421L102.949 147.229L149.872 228.501L141.636 233.255C141.636 233.255 126.319 220.74 124.388 211.567C122.458 202.395 115.016 195.335 105.872 187.682ZM136.538 169.977C134.483 158.231 114.116 152.292 114.116 152.292L102.966 147.219L149.889 228.491L158.124 223.736C158.124 223.736 154.943 204.213 147.965 197.955C140.987 191.697 138.593 181.722 136.538 169.977Z" fill="url(#paint1_linear_0_441)"/>
<path fill-rule="evenodd" clip-rule="evenodd" d="M249.766 187.273C257.798 180.612 253.24 162.521 253.24 162.521L252.133 151.827L211.144 222.823L218.438 227.034C218.438 227.034 231.892 216.143 233.548 208.113C235.204 200.083 241.735 193.933 249.766 187.273ZM222.605 171.591C224.357 161.305 242.304 156.206 242.304 156.206L252.118 151.818L211.129 222.814L203.835 218.603C203.835 218.603 206.539 201.506 212.666 196.057C218.792 190.607 220.853 181.876 222.605 171.591Z" fill="url(#paint2_linear_0_441)"/>
<g filter="url(#filter1_d_0_441)">
<path fill-rule="evenodd" clip-rule="evenodd" d="M122.223 152.754C113.262 140.096 126.732 115.877 126.732 115.877L132.419 100.949L163.967 218.686L151.895 221.921C151.895 221.921 136.781 201.097 137.485 188.929C138.19 176.761 131.184 165.413 122.223 152.754ZM167.177 140.709C168.608 125.266 144.833 111.027 144.833 111.027L132.444 100.942L163.991 218.679L176.063 215.445C176.063 215.445 178.741 189.854 172.047 179.669C165.352 169.483 165.745 156.153 167.177 140.709Z" fill="url(#paint3_linear_0_441)"/>
</g>
<g filter="url(#filter2_d_0_441)">
<path fill-rule="evenodd" clip-rule="evenodd" d="M239.015 172.171C247.976 159.512 234.506 135.293 234.506 135.293L228.819 120.365L197.272 238.102L209.344 241.337C209.344 241.337 224.458 220.514 223.753 208.345C223.048 196.177 230.054 184.829 239.015 172.171ZM194.062 160.125C192.63 144.682 216.406 130.443 216.406 130.443L228.794 120.358L197.247 238.096L185.175 234.861C185.175 234.861 182.497 209.27 189.192 199.085C195.886 188.899 195.493 175.569 194.062 160.125Z" fill="url(#paint4_linear_0_441)"/>
</g>
<g filter="url(#filter3_d_0_441)">
<path fill-rule="evenodd" clip-rule="evenodd" d="M152.31 121.913C144.763 103.499 168.585 77.1074 168.585 77.1074L179.999 60.0846L185.457 216.398L169.437 216.957C169.437 216.957 156.556 186.559 160.948 171.548C165.339 156.538 159.857 140.328 152.31 121.913ZM211.966 119.83C218.21 100.935 192.605 76.2686 192.605 76.2686L180.032 60.0834L185.49 216.396L201.511 215.837C201.511 215.837 212.24 184.614 206.812 169.947C201.384 155.279 205.722 138.726 211.966 119.83Z" fill="url(#paint5_linear_0_441)"/>
</g>
<path fill-rule="evenodd" clip-rule="evenodd" d="M98.2559 200.264C98.2559 200.264 137.251 207.631 177.962 207.631C218.673 207.631 257.669 200.264 257.669 200.264L237.672 299.601C235.863 308.583 229.46 315.962 220.537 318.043C210.082 320.482 194.808 323.144 177.962 323.144C160.949 323.144 144.305 320.428 132.727 317.971C123.046 315.916 116.033 307.904 114.421 298.139L98.2559 200.264Z" fill="url(#paint6_linear_0_441)"/>
</g>
<g opacity="0.2" filter="url(#filter4_d_0_441)">
<rect x="87.5766" y="78" width="28" height="28" rx="10" transform="rotate(20 87.5766 78)" fill="url(#paint7_linear_0_441)"/>
</g>
<g filter="url(#filter5_d_0_441)">
<rect x="261.605" y="240.66" width="26" height="26" rx="10" transform="rotate(80 261.605 240.66)" fill="url(#paint8_linear_0_441)"/>
</g>
<g opacity="0.8" filter="url(#filter6_d_0_441)">
<rect x="109.141" y="271.66" width="22" height="22" rx="8" transform="rotate(40 109.141 271.66)" fill="url(#paint9_linear_0_441)"/>
</g>
<g opacity="0.8" filter="url(#filter7_d_0_441)">
<rect x="263.914" y="106.66" width="18" height="18" rx="7" transform="rotate(70 263.914 106.66)" fill="url(#paint10_linear_0_441)"/>
</g>
<g opacity="0.2" filter="url(#filter8_d_0_441)">
<rect x="271.914" y="303.66" width="18" height="18" rx="7" transform="rotate(70 271.914 303.66)" fill="url(#paint11_linear_0_441)"/>
</g>
<g opacity="0.6" filter="url(#filter9_d_0_441)">
<rect x="157.787" y="326.673" width="14" height="14" rx="5" transform="rotate(80 157.787 326.673)" fill="url(#paint12_linear_0_441)"/>
</g>
<g opacity="0.9" filter="url(#filter10_d_0_441)">
<rect x="123.594" y="117.944" width="18" height="18" rx="7" transform="rotate(20 123.594 117.944)" fill="url(#paint13_linear_0_441)"/>
</g>
<g opacity="0.4" filter="url(#filter11_d_0_441)">
<rect x="61" y="175.66" width="14" height="14" rx="5" transform="rotate(30 61 175.66)" fill="url(#paint14_linear_0_441)"/>
</g>
<g opacity="0.2" filter="url(#filter12_d_0_441)">
<path fill-rule="evenodd" clip-rule="evenodd" d="M70.7101 234.962C70.2383 234.79 69.7166 235.033 69.5449 235.505L68.4567 238.495L65.4667 237.407C64.9949 237.235 64.4733 237.478 64.3015 237.95C64.1298 238.422 64.3731 238.944 64.8449 239.115L67.8348 240.204L66.7466 243.194C66.5748 243.665 66.8181 244.187 67.2899 244.359C67.7617 244.53 68.2834 244.287 68.4551 243.815L69.5433 240.825L72.5333 241.914C73.0051 242.085 73.5267 241.842 73.6985 241.37C73.8702 240.899 73.6269 240.377 73.1551 240.205L70.1652 239.117L71.2534 236.127C71.4252 235.655 71.1819 235.133 70.7101 234.962Z" fill="url(#paint15_linear_0_441)"/>
</g>
<g opacity="0.4" filter="url(#filter13_d_0_441)">
<path fill-rule="evenodd" clip-rule="evenodd" d="M302 205.16C302 204.708 301.634 204.342 301.182 204.342H298.318V201.478C298.318 201.027 297.952 200.66 297.5 200.66C297.048 200.66 296.682 201.027 296.682 201.478V204.342H293.818C293.366 204.342 293 204.708 293 205.16C293 205.612 293.366 205.978 293.818 205.978H296.682V208.842C296.682 209.294 297.048 209.66 297.5 209.66C297.952 209.66 298.318 209.294 298.318 208.842V205.978H301.182C301.634 205.978 302 205.612 302 205.16Z" fill="url(#paint16_linear_0_441)"/>
</g>
<defs>
<filter id="filter0_d_0_441" x="23.2559" y="0.0834465" width="309.413" height="413.061" filterUnits="userSpaceOnUse" color-interpolation-filters="sRGB">
<feFlood flood-opacity="0" result="BackgroundImageFix"/>
<feColorMatrix in="SourceAlpha" type="matrix" values="0 0 0 0 0 0 0 0 0 0 0 0 0 0 0 0 0 0 127 0" result="hardAlpha"/>
<feOffset dy="15"/>
<feGaussianBlur stdDeviation="37.5"/>
<feColorMatrix type="matrix" values="0 0 0 0 0.149603 0 0 0 0 0.151123 0 0 0 0 0.168607 0 0 0 0.06 0"/>
<feBlend mode="normal" in2="BackgroundImageFix" result="effect1_dropShadow_0_441"/>
<feBlend mode="normal" in="SourceGraphic" in2="effect1_dropShadow_0_441" result="shape"/>
</filter>
<filter id="filter1_d_0_441" x="75.1471" y="84.9421" width="129.445" height="192.979" filterUnits="userSpaceOnUse" color-interpolation-filters="sRGB">
<feFlood flood-opacity="0" result="BackgroundImageFix"/>
<feColorMatrix in="SourceAlpha" type="matrix" values="0 0 0 0 0 0 0 0 0 0 0 0 0 0 0 0 0 0 127 0" result="hardAlpha"/>
<feOffset dx="-8" dy="20"/>
<feGaussianBlur stdDeviation="18"/>
<feColorMatrix type="matrix" values="0 0 0 0 0 0 0 0 0 0 0 0 0 0 0 0 0 0 0.120952 0"/>
<feBlend mode="normal" in2="BackgroundImageFix" result="effect1_dropShadow_0_441"/>
<feBlend mode="normal" in="SourceGraphic" in2="effect1_dropShadow_0_441" result="shape"/>
</filter>
<filter id="filter2_d_0_441" x="140.646" y="104.358" width="129.445" height="192.979" filterUnits="userSpaceOnUse" color-interpolation-filters="sRGB">
<feFlood flood-opacity="0" result="BackgroundImageFix"/>
<feColorMatrix in="SourceAlpha" type="matrix" values="0 0 0 0 0 0 0 0 0 0 0 0 0 0 0 0 0 0 127 0" result="hardAlpha"/>
<feOffset dx="-8" dy="20"/>
<feGaussianBlur stdDeviation="18"/>
<feColorMatrix type="matrix" values="0 0 0 0 0 0 0 0 0 0 0 0 0 0 0 0 0 0 0.120952 0"/>
<feBlend mode="normal" in2="BackgroundImageFix" result="effect1_dropShadow_0_441"/>
<feBlend mode="normal" in="SourceGraphic" in2="effect1_dropShadow_0_441" result="shape"/>
</filter>
<filter id="filter3_d_0_441" x="106.833" y="44.0834" width="134.114" height="228.874" filterUnits="userSpaceOnUse" color-interpolation-filters="sRGB">
<feFlood flood-opacity="0" result="BackgroundImageFix"/>
<feColorMatrix in="SourceAlpha" type="matrix" values="0 0 0 0 0 0 0 0 0 0 0 0 0 0 0 0 0 0 127 0" result="hardAlpha"/>
<feOffset dx="-8" dy="20"/>
<feGaussianBlur stdDeviation="18"/>
<feColorMatrix type="matrix" values="0 0 0 0 0 0 0 0 0 0 0 0 0 0 0 0 0 0 0.0116621 0"/>
<feBlend mode="normal" in2="BackgroundImageFix" result="effect1_dropShadow_0_441"/>
<feBlend mode="normal" in="SourceGraphic" in2="effect1_dropShadow_0_441" result="shape"/>
</filter>
<filter id="filter4_d_0_441" x="25.8144" y="40.8144" width="140.259" height="140.259" filterUnits="userSpaceOnUse" color-interpolation-filters="sRGB">
<feFlood flood-opacity="0" result="BackgroundImageFix"/>
<feColorMatrix in="SourceAlpha" type="matrix" values="0 0 0 0 0 0 0 0 0 0 0 0 0 0 0 0 0 0 127 0" result="hardAlpha"/>
<feOffset dy="15"/>
<feGaussianBlur stdDeviation="27.5"/>
<feColorMatrix type="matrix" values="0 0 0 0 0.615686 0 0 0 0 0.639216 0 0 0 0 0.705882 0 0 0 0.2 0"/>
<feBlend mode="normal" in2="BackgroundImageFix" result="effect1_dropShadow_0_441"/>
<feBlend mode="normal" in="SourceGraphic" in2="effect1_dropShadow_0_441" result="shape"/>
</filter>
<filter id="filter5_d_0_441" x="182.583" y="202.243" width="136.954" height="136.954" filterUnits="userSpaceOnUse" color-interpolation-filters="sRGB">
<feFlood flood-opacity="0" result="BackgroundImageFix"/>
<feColorMatrix in="SourceAlpha" type="matrix" values="0 0 0 0 0 0 0 0 0 0 0 0 0 0 0 0 0 0 127 0" result="hardAlpha"/>
<feOffset dy="15"/>
<feGaussianBlur stdDeviation="27.5"/>
<feColorMatrix type="matrix" values="0 0 0 0 0.615686 0 0 0 0 0.639216 0 0 0 0 0.705882 0 0 0 0.2 0"/>
<feBlend mode="normal" in2="BackgroundImageFix" result="effect1_dropShadow_0_441"/>
<feBlend mode="normal" in="SourceGraphic" in2="effect1_dropShadow_0_441" result="shape"/>
</filter>
<filter id="filter6_d_0_441" x="43.2705" y="234.931" width="134.453" height="134.453" filterUnits="userSpaceOnUse" color-interpolation-filters="sRGB">
<feFlood flood-opacity="0" result="BackgroundImageFix"/>
<feColorMatrix in="SourceAlpha" type="matrix" values="0 0 0 0 0 0 0 0 0 0 0 0 0 0 0 0 0 0 127 0" result="hardAlpha"/>
<feOffset dy="15"/>
<feGaussianBlur stdDeviation="27.5"/>
<feColorMatrix type="matrix" values="0 0 0 0 0.615686 0 0 0 0 0.639216 0 0 0 0 0.705882 0 0 0 0.2 0"/>
<feBlend mode="normal" in2="BackgroundImageFix" result="effect1_dropShadow_0_441"/>
<feBlend mode="normal" in="SourceGraphic" in2="effect1_dropShadow_0_441" result="shape"/>
</filter>
<filter id="filter7_d_0_441" x="193.97" y="68.6303" width="129.131" height="129.131" filterUnits="userSpaceOnUse" color-interpolation-filters="sRGB">
<feFlood flood-opacity="0" result="BackgroundImageFix"/>
<feColorMatrix in="SourceAlpha" type="matrix" values="0 0 0 0 0 0 0 0 0 0 0 0 0 0 0 0 0 0 127 0" result="hardAlpha"/>
<feOffset dy="15"/>
<feGaussianBlur stdDeviation="27.5"/>
<feColorMatrix type="matrix" values="0 0 0 0 0.615686 0 0 0 0 0.639216 0 0 0 0 0.705882 0 0 0 0.2 0"/>
<feBlend mode="normal" in2="BackgroundImageFix" result="effect1_dropShadow_0_441"/>
<feBlend mode="normal" in="SourceGraphic" in2="effect1_dropShadow_0_441" result="shape"/>
</filter>
<filter id="filter8_d_0_441" x="201.97" y="265.63" width="129.131" height="129.131" filterUnits="userSpaceOnUse" color-interpolation-filters="sRGB">
<feFlood flood-opacity="0" result="BackgroundImageFix"/>
<feColorMatrix in="SourceAlpha" type="matrix" values="0 0 0 0 0 0 0 0 0 0 0 0 0 0 0 0 0 0 127 0" result="hardAlpha"/>
<feOffset dy="15"/>
<feGaussianBlur stdDeviation="27.5"/>
<feColorMatrix type="matrix" values="0 0 0 0 0.615686 0 0 0 0 0.639216 0 0 0 0 0.705882 0 0 0 0.2 0"/>
<feBlend mode="normal" in2="BackgroundImageFix" result="effect1_dropShadow_0_441"/>
<feBlend mode="normal" in="SourceGraphic" in2="effect1_dropShadow_0_441" result="shape"/>
</filter>
<filter id="filter9_d_0_441" x="89.7914" y="287.465" width="124.635" height="124.635" filterUnits="userSpaceOnUse" color-interpolation-filters="sRGB">
<feFlood flood-opacity="0" result="BackgroundImageFix"/>
<feColorMatrix in="SourceAlpha" type="matrix" values="0 0 0 0 0 0 0 0 0 0 0 0 0 0 0 0 0 0 127 0" result="hardAlpha"/>
<feOffset dy="15"/>
<feGaussianBlur stdDeviation="27.5"/>
<feColorMatrix type="matrix" values="0 0 0 0 0.615686 0 0 0 0 0.639216 0 0 0 0 0.705882 0 0 0 0.2 0"/>
<feBlend mode="normal" in2="BackgroundImageFix" result="effect1_dropShadow_0_441"/>
<feBlend mode="normal" in="SourceGraphic" in2="effect1_dropShadow_0_441" result="shape"/>
</filter>
<filter id="filter10_d_0_441" x="64.4079" y="79.9141" width="129.131" height="129.131" filterUnits="userSpaceOnUse" color-interpolation-filters="sRGB">
<feFlood flood-opacity="0" result="BackgroundImageFix"/>
<feColorMatrix in="SourceAlpha" type="matrix" values="0 0 0 0 0 0 0 0 0 0 0 0 0 0 0 0 0 0 127 0" result="hardAlpha"/>
<feOffset dy="15"/>
<feGaussianBlur stdDeviation="27.5"/>
<feColorMatrix type="matrix" values="0 0 0 0 0.615686 0 0 0 0 0.639216 0 0 0 0 0.705882 0 0 0 0.2 0"/>
<feBlend mode="normal" in2="BackgroundImageFix" result="effect1_dropShadow_0_441"/>
<feBlend mode="normal" in="SourceGraphic" in2="effect1_dropShadow_0_441" result="shape"/>
</filter>
<filter id="filter11_d_0_441" x="0.8293" y="137.49" width="125.466" height="125.466" filterUnits="userSpaceOnUse" color-interpolation-filters="sRGB">
<feFlood flood-opacity="0" result="BackgroundImageFix"/>
<feColorMatrix in="SourceAlpha" type="matrix" values="0 0 0 0 0 0 0 0 0 0 0 0 0 0 0 0 0 0 127 0" result="hardAlpha"/>
<feOffset dy="15"/>
<feGaussianBlur stdDeviation="27.5"/>
<feColorMatrix type="matrix" values="0 0 0 0 0.615686 0 0 0 0 0.639216 0 0 0 0 0.705882 0 0 0 0.2 0"/>
<feBlend mode="normal" in2="BackgroundImageFix" result="effect1_dropShadow_0_441"/>
<feBlend mode="normal" in="SourceGraphic" in2="effect1_dropShadow_0_441" result="shape"/>
</filter>
<filter id="filter12_d_0_441" x="9.24648" y="194.907" width="119.507" height="119.507" filterUnits="userSpaceOnUse" color-interpolation-filters="sRGB">
<feFlood flood-opacity="0" result="BackgroundImageFix"/>
<feColorMatrix in="SourceAlpha" type="matrix" values="0 0 0 0 0 0 0 0 0 0 0 0 0 0 0 0 0 0 127 0" result="hardAlpha"/>
<feOffset dy="15"/>
<feGaussianBlur stdDeviation="27.5"/>
<feColorMatrix type="matrix" values="0 0 0 0 0.615686 0 0 0 0 0.639216 0 0 0 0 0.705882 0 0 0 0.2 0"/>
<feBlend mode="normal" in2="BackgroundImageFix" result="effect1_dropShadow_0_441"/>
<feBlend mode="normal" in="SourceGraphic" in2="effect1_dropShadow_0_441" result="shape"/>
</filter>
<filter id="filter13_d_0_441" x="238" y="160.66" width="119" height="119" filterUnits="userSpaceOnUse" color-interpolation-filters="sRGB">
<feFlood flood-opacity="0" result="BackgroundImageFix"/>
<feColorMatrix in="SourceAlpha" type="matrix" values="0 0 0 0 0 0 0 0 0 0 0 0 0 0 0 0 0 0 127 0" result="hardAlpha"/>
<feOffset dy="15"/>
<feGaussianBlur stdDeviation="27.5"/>
<feColorMatrix type="matrix" values="0 0 0 0 0.615686 0 0 0 0 0.639216 0 0 0 0 0.705882 0 0 0 0.2 0"/>
<feBlend mode="normal" in2="BackgroundImageFix" result="effect1_dropShadow_0_441"/>
<feBlend mode="normal" in="SourceGraphic" in2="effect1_dropShadow_0_441" result="shape"/>
</filter>
<linearGradient id="paint0_linear_0_441" x1="99.9001" y1="187.788" x2="99.9001" y2="209.973" gradientUnits="userSpaceOnUse">
<stop stop-color="white"/>
<stop offset="1" stop-color="#9CA3AF"/>
</linearGradient>
<linearGradient id="paint1_linear_0_441" x1="142.176" y1="157.595" x2="94.3184" y2="170.609" gradientUnits="userSpaceOnUse">
<stop stop-color="#00B09B"/>
<stop offset="1" stop-color="#96C93D"/>
</linearGradient>
<linearGradient id="paint2_linear_0_441" x1="217.563" y1="160.707" x2="259.952" y2="172.078" gradientUnits="userSpaceOnUse">
<stop stop-color="#00B09B"/>
<stop offset="1" stop-color="#96C93D"/>
</linearGradient>
<linearGradient id="paint3_linear_0_441" x1="178.578" y1="127.026" x2="113.445" y2="127.077" gradientUnits="userSpaceOnUse">
<stop stop-color="#00B09B"/>
<stop offset="1" stop-color="#96C93D"/>
</linearGradient>
<linearGradient id="paint4_linear_0_441" x1="182.661" y1="146.442" x2="247.793" y2="146.493" gradientUnits="userSpaceOnUse">
<stop stop-color="#00B09B"/>
<stop offset="1" stop-color="#96C93D"/>
</linearGradient>
<linearGradient id="paint5_linear_0_441" x1="230.162" y1="106.014" x2="148.744" y2="87.2939" gradientUnits="userSpaceOnUse">
<stop stop-color="#00B09B"/>
<stop offset="1" stop-color="#96C93D"/>
</linearGradient>
<linearGradient id="paint6_linear_0_441" x1="120.499" y1="284.734" x2="168.17" y2="284.734" gradientUnits="userSpaceOnUse">
<stop stop-color="white"/>
<stop offset="1" stop-color="#EDEFF4"/>
</linearGradient>
<linearGradient id="paint7_linear_0_441" x1="72.8106" y1="91.3865" x2="101.178" y2="120.184" gradientUnits="userSpaceOnUse">
<stop stop-color="#0AC4BA"/>
<stop offset="1" stop-color="#2BDA8E"/>
</linearGradient>
<linearGradient id="paint8_linear_0_441" x1="247.894" y1="253.091" x2="274.235" y2="279.831" gradientUnits="userSpaceOnUse">
<stop stop-color="#0AC4BA"/>
<stop offset="1" stop-color="#2BDA8E"/>
</linearGradient>
<linearGradient id="paint9_linear_0_441" x1="97.5395" y1="282.178" x2="119.828" y2="304.805" gradientUnits="userSpaceOnUse">
<stop stop-color="#0AC4BA"/>
<stop offset="1" stop-color="#2BDA8E"/>
</linearGradient>
<linearGradient id="paint10_linear_0_441" x1="254.422" y1="115.266" x2="272.658" y2="133.778" gradientUnits="userSpaceOnUse">
<stop stop-color="#0AC4BA"/>
<stop offset="1" stop-color="#2BDA8E"/>
</linearGradient>
<linearGradient id="paint11_linear_0_441" x1="262.422" y1="312.266" x2="280.658" y2="330.778" gradientUnits="userSpaceOnUse">
<stop stop-color="#0AC4BA"/>
<stop offset="1" stop-color="#2BDA8E"/>
</linearGradient>
<linearGradient id="paint12_linear_0_441" x1="150.404" y1="333.367" x2="164.588" y2="347.765" gradientUnits="userSpaceOnUse">
<stop stop-color="#0AC4BA"/>
<stop offset="1" stop-color="#2BDA8E"/>
</linearGradient>
<linearGradient id="paint13_linear_0_441" x1="114.102" y1="126.55" x2="132.338" y2="145.062" gradientUnits="userSpaceOnUse">
<stop stop-color="#0AC4BA"/>
<stop offset="1" stop-color="#2BDA8E"/>
</linearGradient>
<linearGradient id="paint14_linear_0_441" x1="53.617" y1="182.354" x2="67.8007" y2="196.752" gradientUnits="userSpaceOnUse">
<stop stop-color="#0AC4BA"/>
<stop offset="1" stop-color="#2BDA8E"/>
</linearGradient>
<linearGradient id="paint15_linear_0_441" x1="59.421" y1="235.941" x2="65.4236" y2="249.07" gradientUnits="userSpaceOnUse">
<stop stop-color="#0AC4BA"/>
<stop offset="1" stop-color="#2BDA8E"/>
</linearGradient>
<linearGradient id="paint16_linear_0_441" x1="297.697" y1="195.914" x2="288.441" y2="205.032" gradientUnits="userSpaceOnUse">
<stop stop-color="#0AC4BA"/>
<stop offset="1" stop-color="#2BDA8E"/>
</linearGradient>
</defs>
</svg>
